<svg fill="none" height="78" viewBox="0 0 424 78" width="424" xmlns="http://www.w3.org/2000/svg"><path d="M103.08 13.3906H91.9688V65.2288H103.08V13.3906Z" fill="white"></path><path d="M84.5497 13.3906H73.4492V65.2396H84.5497V46.7566L90.2665 42.4798V31.0354L84.5497 35.323V13.3906Z" fill="white"></path><path d="M148.232 13.3906H137.121V65.2288H148.232V13.3906Z" fill="white"></path><path d="M179.414 65.237H189.902L192.9 54.8672H179.414V65.237Z" fill="white"></path><path d="M278.129 65.237H288.617L291.615 54.8672H278.129V65.237Z" fill="white"></path><path d="M149.922 65.237H160.41L163.408 54.8672H149.922V65.237Z" fill="white"></path><path d="M177.717 13.3906H166.605V65.2288H177.717V13.3906Z" fill="white"></path><path d="M217.584 49.4986H207.88V22.3438H200.605V56.2901H217.584V49.4986Z" fill="white"></path><path d="M235.163 29.1352L236.894 22.3438H219.926V56.2901H235.325L237.291 49.4986H227.201V42.1269H232.66L234.476 35.8299H227.201V29.1352H235.163Z" fill="white"></path><path d="M236.961 29.1352H244.752V56.2901H252.027V29.1352H258.098V22.3438H238.691L236.961 29.1352Z" fill="white"></path><path d="M276.428 13.3906H265.316V65.2288H276.428V13.3906Z" fill="white"></path><path d="M294.812 21.0935V57.5329C294.812 62.1966 297.993 65.3882 302.668 65.3882H308.782V54.8679H306.149C305.999 54.8679 305.924 54.7927 305.924 54.6423V23.9842C305.924 23.8337 305.999 23.7585 306.149 23.7585H308.782V13.2383H302.668C298.004 13.2383 294.812 16.4191 294.812 21.0935Z" fill="white"></path><path d="M316.587 13.2461H310.473V23.7663H313.105C313.245 23.7663 313.331 23.8416 313.331 23.992V54.6501C313.331 54.8005 313.256 54.8757 313.105 54.8757H310.473V65.396H316.587C321.251 65.396 324.442 62.2152 324.442 57.5407V21.1014C324.442 16.4376 321.262 13.2461 316.587 13.2461Z" fill="white"></path><path d="M350.693 13.2461H344.578V23.7663H347.211C347.361 23.7663 347.437 23.8416 347.437 23.992V54.6501C347.437 54.8005 347.361 54.8757 347.211 54.8757H344.578V65.396H350.693C355.356 65.396 358.548 62.2152 358.548 57.5407V21.1014C358.548 16.4376 355.367 13.2461 350.693 13.2461Z" fill="white"></path><path d="M328.922 21.0935V57.5329C328.922 62.1966 332.103 65.3882 336.777 65.3882H342.892V54.8679H340.259C340.108 54.8679 340.033 54.7927 340.033 54.6423V23.9842C340.033 23.8337 340.108 23.7585 340.259 23.7585H342.892V13.2383H336.777C332.113 13.2383 328.922 16.4191 328.922 21.0935Z" fill="white"></path><path d="M374.131 54.6418V48.5703H363.02V57.5324C363.02 62.1961 366.125 65.3877 370.875 65.3877H376.989V54.8674H374.356C374.206 54.8674 374.131 54.7922 374.131 54.6418Z" fill="white"></path><path d="M384.802 13.2461H378.688V23.7663H381.32C381.46 23.7663 381.546 23.8416 381.546 23.992V30.0634H392.657V21.1014C392.657 16.4376 389.476 13.2461 384.802 13.2461Z" fill="white"></path><path d="M374.356 27.6886C374.206 27.5381 374.131 27.3985 374.131 27.1728V23.992C374.131 23.8416 374.206 23.7663 374.356 23.7663H376.989V13.2461H370.875C366.136 13.2461 363.02 16.4269 363.02 21.1014V27.0223C363.02 30.3536 364.202 33.0186 365.985 34.8024L381.32 49.9111C381.46 50.0616 381.545 50.212 381.545 50.4269V54.6501C381.545 54.8005 381.47 54.8757 381.32 54.8757H378.687V65.396H384.801C389.465 65.396 392.657 62.2152 392.657 57.5407V50.5774C392.657 47.2462 391.464 44.5811 389.691 42.7973L374.356 27.6886Z" fill="white"></path><path d="M258.096 13.3984H200.605V18.8788H258.096V13.3984Z" fill="white"></path><path d="M258.096 59.7578H200.605V65.2382H258.096V59.7578Z" fill="white"></path><path d="M419.339 33.9844H409.926V43.602H416.567L419.339 33.9844Z" fill="white"></path><path d="M408.236 13.3906H397.125V65.2288H408.236V13.3906Z" fill="white"></path><path d="M409.934 65.237H419.863L422.85 54.8672H409.934V65.237Z" fill="white"></path><path d="M423.076 13.3906H409.934V23.7604H420.078L423.076 13.3906Z" fill="white"></path><path d="M129.835 33.9844H120.422V43.602H127.063L129.835 33.9844Z" fill="white"></path><path d="M118.732 13.3906H107.621V65.2288H118.732V13.3906Z" fill="white"></path><path d="M120.422 65.237H130.362L133.349 54.8672H120.422V65.237Z" fill="white"></path><path d="M120.422 23.7604H130.577L133.575 13.3906H120.422V23.7604Z" fill="white"></path><path d="M19.582 3.61612H20.5062L19.625 5.7653L20.2268 43.6661L21.0219 46.7072V55.3684L21.57 55.7552L21.7742 62.2995C21.7742 64.9967 22.0643 67.6939 22.6553 70.3374L24.149 77.0751C24.2243 77.4082 24.4714 77.6876 24.8045 77.7628C25.2881 77.8703 25.7287 77.5694 25.8362 77.1073L27.3405 70.3374C27.9316 67.6939 28.2217 65.0075 28.2217 62.2995L28.4259 55.7552L28.9739 55.3684V46.7072L29.7691 43.6661L30.3709 5.7653L29.4897 3.61612H30.4139V1.10156H19.5928V3.61612H19.582Z" fill="white"></path><path d="M44.6304 37.3141V12.5448C44.6304 11.7281 44.9635 10.9974 45.4901 10.4601C45.9844 9.96578 46.6507 9.65414 47.3814 9.60041V7.25781H35.3889V26.9228H31.9932L31.7891 36.4759H35.3889V50.6498C35.3997 56.3881 35.4426 65.3179 35.3889 65.5221L44.6197 51.9823L49.0685 45.4488C47.3491 43.7187 44.6197 41.7521 44.6197 37.2926" fill="white"></path><path d="M14.5858 26.9423V7.27734H2.59336V9.61996C3.33483 9.66294 4.00103 9.98532 4.49534 10.4796C5.02189 11.0169 5.35507 11.7476 5.35507 12.5643V37.3336C5.35507 41.7932 2.62559 43.7597 0.90625 45.4898L5.35507 52.0233L14.5858 65.5631C14.532 65.3589 14.5643 56.4291 14.5858 50.6908V36.5169H18.1857L17.9815 26.9638H14.5858V26.9423Z" fill="white"></path><path d="M19.5156 3.49112H20.4398L19.5586 5.6403L20.1604 43.5411L20.9555 46.5822V55.2434L21.5036 55.6302L21.7078 62.1745C21.7078 64.8717 21.9979 67.5689 22.5889 70.2124L24.0826 76.9501C24.1579 77.2832 24.405 77.5626 24.7381 77.6378C25.2217 77.7453 25.6623 77.4444 25.7697 76.9823L27.2741 70.2124C27.8652 67.5689 28.1553 64.8824 28.1553 62.1745L28.3595 55.6302L28.9075 55.2434V46.5822L29.7027 43.5411L30.3045 5.6403L29.4233 3.49112H30.3474V0.976562H19.5264V3.49112H19.5156Z" fill="white"></path><path d="M44.564 37.2008V12.4315C44.564 11.6148 44.8971 10.8841 45.4237 10.3468C45.918 9.85249 46.5842 9.54086 47.315 9.48713V7.14453H35.3225V26.8095H31.9268L31.7227 36.3626H35.3225V50.5365C35.3333 56.2748 35.3762 65.2046 35.3225 65.4088L44.5533 51.869L49.0021 45.3355C47.2827 43.6054 44.5533 41.6389 44.5533 37.1793" fill="white"></path><path d="M14.5194 26.8173V7.15234H2.52696V9.49496C3.26843 9.53794 3.93463 9.86032 4.42894 10.3546C4.95549 10.8919 5.28866 11.6226 5.28866 12.4393V37.2086C5.28866 41.6682 2.55919 43.6347 0.839844 45.3648L5.28866 51.8983L14.5194 65.4381C14.4656 65.2339 14.4979 56.3041 14.5194 50.5658V36.3919H18.1193L17.9151 26.8388H14.5194V26.8173Z" fill="white"></path></svg>